<svg xmlns="http://www.w3.org/2000/svg" viewBox="0 0 24 24" width="288" height="288">
    <rect x="0" y="0" width="24" height="24" fill="#222222" />
    <path d="M19,22c0.552734,0,1-0.447754,1-1v-2.484375c0-5.143555-1.147461-10.30957-3.318359-14.939941
    c-0.15332-0.328125-0.472656-0.547363-0.833984-0.573242c-0.371094-0.016113-0.708008,0.146484-0.907227,0.44873
    l-1.936523,2.94873H11.53125c-2.368164,0-4.475586,1.466797-5.367188,3.691406l-0.688477,0.356445
    c-1.071289,0.553711-1.657227,1.781738-1.423828,2.985352c0.566406,2.935547,3.050781,5.081543,5.944336,5.164551
    L9.34082,20.703125c-0.164062,0.527344,0.130859,1.087891,0.658203,1.251953c0.098633,0.030762,0.199219,0.04541,0.296875,0.04541
    C10.722656,22,11.117188,21.725586,11.250977,21.296875l1.057617-3.399902c0.09375-0.303223,0.039062-0.633789-0.149414-0.889648
    s-0.487305-0.407227-0.805664-0.407227h-1.183594c-2.010742,0-3.757812-1.491211-4.155273-3.545898
    c-0.06543-0.339355,0.09082-0.680664,0.379883-0.830078l1.036133-0.536133c0.234375-0.121094,0.411133-0.330078,0.492188-0.581543
    c0.521484-1.618652,1.97168-2.706543,3.608398-2.706543h2.012695c0.336914,0,0.651367-0.169434,0.835938-0.451172
    l1.217773-1.854004C17.172852,10.016113,18,14.273438,18,18.515625V21C18,21.552246,18.447266,22,19,22z"
        fill="#ffffff" />
</svg>
