<svg width="25" height="25" viewBox="0 0 25 25" fill="none" xmlns="http://www.w3.org/2000/svg">
    <path
        d="M12.501 0.5C16.7077 0.5 20.173 3.79053 20.4805 7.95508L20.5 8.36035L20.4971 16.4795C20.4757 20.8718 16.9512 24.4395 12.6064 24.499H12.502C10.584 24.4782 8.74476 23.757 7.31738 22.4814L8.87109 20.917C9.82452 21.7271 11.0144 22.2069 12.2646 22.2793L12.5498 22.2891H12.5586C15.7367 22.2553 18.3271 19.6453 18.3271 16.4414V8.55859C18.3271 5.33447 15.7086 2.70898 12.501 2.70898C9.2921 2.70924 6.68856 5.33615 6.68848 8.55859C6.68848 11.7811 9.29204 14.408 12.501 14.4082H14.7969V16.6182H12.501C8.09255 16.6179 4.5 13.0049 4.5 8.55859C4.50009 4.1124 8.09256 0.500251 12.501 0.5Z"
        fill="#F55036" stroke="#F55036" />
</svg>
