<svg width="48" height="48" viewBox="0 0 48 48" xmlns="http://www.w3.org/2000/svg">
    <g transform="translate(0,12)">
        <path
            d="M45.5338 0.849381H24.8365C23.6936 0.849381 22.7672 1.77583 22.7672 2.91943V9.12889C22.7672 10.2725 21.8415 11.1983 20.6973 11.1983H2.06993C0.927077 11.1983 0 12.1254 0 13.2683V21.5478C0 22.6907 0.927077 23.6172 2.06993 23.6172H22.7672C23.9101 23.6172 24.8365 22.6907 24.8365 21.5478V15.3384C24.8365 14.1941 25.7622 13.2683 26.9064 13.2683H45.5338C46.6766 13.2683 47.6037 12.3419 47.6037 11.1983V2.91943C47.6037 1.77583 46.6766 0.849381 45.5338 0.849381Z"
            fill="#6C28F6"/>
    </g>
</svg>
